/vscmnt/brussel_pixiu_data/_data_brussel/112/vsc11236/PredSimResults/SUBJ04mtu3D/worker6.mot
version=1
nRows=7
nColumns=50
inDegrees=yes
endheader
                time	         pelvis_tilt	         pelvis_list	     pelvis_rotation	           pelvis_tx	           pelvis_ty	           pelvis_tz	       hip_flexion_r	     hip_adduction_r	      hip_rotation_r	        knee_angle_r	       ankle_angle_r	         mtp_angle_r	       hip_flexion_l	     hip_adduction_l	      hip_rotation_l	        knee_angle_l	       ankle_angle_l	         mtp_angle_l	    lumbar_extension	      lumbar_bending	     lumbar_rotation	 ercspn_r/activation	 intobl_r/activation	 extobl_r/activation	    abd_r/activation	    add_r/activation	hamstrings_r/activation	bifemsh_r/activation	glut_max_r/activation	iliopsoas_r/activation	rect_fem_r/activation	  vasti_r/activation	gastroc_r/activation	 soleus_r/activation	tib_ant_r/activation	 ercspn_l/activation	 intobl_l/activation	 extobl_l/activation	    abd_l/activation	    add_l/activation	hamstrings_l/activation	bifemsh_l/activation	glut_max_l/activation	iliopsoas_l/activation	rect_fem_l/activation	  vasti_l/activation	gastroc_l/activation	 soleus_l/activation	tib_ant_l/activation	
          2.18781667	         -1.40086814	         -2.65180641	        -10.18024081	          2.05654767	          0.87823214	          0.01083466	        -12.68053158	          1.10905103	         -5.38241265	        -13.95104398	         11.09643777	         28.51378785	         28.77566339	         -4.65021716	         -1.98192613	         -9.05770171	          7.11944698	          0.22984905	        -14.58942117	          6.82325530	          5.00239056	          0.05128101	          0.00999999	          0.00999999	          0.03689917	          0.00999999	          0.01678953	          0.18223652	          0.02024269	          0.19395078	          0.00999999	          0.00999999	          0.34815589	          0.33896431	          0.01545273	          0.08140935	          0.08209781	          0.02521768	          0.00999999	          0.21195848	          0.03087476	          0.11061921	          0.05528664	          0.12209540	          0.00999999	          0.00999999	          0.04526379	          0.01178673	          0.16704199	
          2.20240211	         -1.39786585	         -2.67116221	         -9.56549294	          2.07410459	          0.87617872	          0.00949614	        -13.38259840	          0.97586151	         -6.40812086	        -14.82695468	         10.27903007	         30.30778742	         28.81306546	         -4.25967050	         -2.04062815	        -10.88510825	          6.77682254	          0.21012196	        -14.17830385	          6.27240141	          5.17187822	          0.06179800	          0.00999999	          0.00999999	          0.02968341	          0.01000000	          0.01563315	          0.14659953	          0.01628416	          0.20231268	          0.00999999	          0.00999999	          0.32430067	          0.31826828	          0.01243090	          0.06548947	          0.06604330	          0.02028628	          0.03040738	          0.17050926	          0.04552018	          0.08898724	          0.07050329	          0.09821922	          0.00999999	          0.00999999	          0.03641230	          0.01545273	          0.19370177	
          2.21698756	         -1.38367054	         -2.64535201	         -8.88550020	          2.09190220	          0.87459007	          0.00800492	        -13.83859747	          0.77759832	         -7.48246447	        -16.16362096	          9.23864579	         32.18441382	         28.68820093	         -3.85006952	         -2.11940041	        -12.42769274	          6.25393900	          0.20220677	        -13.75312447	          5.65766052	          5.32748938	          0.08407777	          0.00999999	          0.00999999	          0.02387871	          0.00999999	          0.01355680	          0.11793148	          0.01309974	          0.18869127	          0.00999999	          0.00999999	          0.29261361	          0.29267231	          0.00999999	          0.08335928	          0.05312830	          0.01631922	          0.06033595	          0.15545695	          0.04854449	          0.07158547	          0.05671613	          0.07901211	          0.00999999	          0.04954995	          0.02929174	          0.01243090	          0.22494068	
          2.23157300	         -1.36096514	         -2.60087956	         -8.14362824	          2.10974567	          0.87364213	          0.00634705	        -14.00872421	          0.52795517	         -8.60884071	        -17.99576452	          7.91797837	         34.06533764	         28.40612467	         -3.42235200	         -2.22060389	        -13.69344529	          5.72409780	          0.18049078	        -13.33953988	          5.01435611	          5.47077291	          0.11120778	          0.00999999	          0.00999999	          0.01920915	          0.07962797	          0.02579345	          0.09486957	          0.01053804	          0.17193962	          0.00999999	          0.00999999	          0.24227843	          0.26044531	          0.00999999	          0.07900059	          0.04273887	          0.01312794	          0.08598710	          0.15175853	          0.05035057	          0.05758668	          0.04562509	          0.06356101	          0.00999999	          0.09389974	          0.02356364	          0.00999999	          0.25318622	
          2.24615844	         -1.33211406	         -2.54749545	         -7.34719459	          2.12749656	          0.87341104	          0.00452846	        -13.88202145	          0.22282532	         -9.78604185	        -20.31697370	          6.33613514	         35.73481492	         27.93114462	         -2.97817538	         -2.30348291	        -14.65969167	          5.38197645	          0.16229603	        -12.95049473	          4.35987969	          5.60161925	          0.13031119	          0.00999999	          0.00999999	          0.01545273	          0.11904914	          0.02808845	          0.07631749	          0.00999999	          0.16725653	          0.00999999	          0.00999999	          0.19490004	          0.22081887	          0.00999999	          0.08351238	          0.03438114	          0.01056073	          0.12149348	          0.14852385	          0.05690151	          0.04632541	          0.03670294	          0.05113144	          0.00999999	          0.11755942	          0.01895569	          0.00999999	          0.26492668	
          2.26074389	         -1.29964860	         -2.49293245	         -6.50545902	          2.14496507	          0.87391758	          0.00256546	        -13.44721756	         -0.14560361	        -11.00994242	        -23.11829612	          4.58123392	         36.85186508	         27.30170755	         -2.51812419	         -2.30452363	        -15.37372104	          5.23836513	          0.14739534	        -12.60359748	          3.70722076	          5.71862783	          0.15082109	          0.00999999	          0.00999999	          0.01243090	          0.17468557	          0.04661546	          0.06139334	          0.00999999	          0.16482036	          0.00999999	          0.00999999	          0.15678665	          0.17763697	          0.00999999	          0.07872744	          0.02765779	          0.00999999	          0.15140804	          0.14338605	          0.06068440	          0.03726631	          0.03368629	          0.04113250	          0.00999999	          0.14138599	          0.01524884	          0.00999999	          0.26416898	
          2.27532933	         -1.26637884	         -2.44509711	         -5.62992356	          2.16196315	          0.87517222	          0.00048782	        -12.69784430	         -0.58838089	        -12.30633810	        -26.39588813	          2.84759189	         36.90810116	         26.55589731	         -2.04569855	         -2.16651553	        -15.86906357	          5.26273282	          0.13752137	        -12.31614038	          3.06928226	          5.82088461	          0.15731123	          0.00999999	          0.00999999	          0.00999999	          0.21974897	          0.03749967	          0.04938766	          0.00999999	          0.16873498	          0.00999999	          0.00999999	          0.12612647	          0.14289944	          0.00999999	          0.07964896	          0.02224921	          0.00999999	          0.16713473	          0.15113347	          0.06510998	          0.02997875	          0.03310768	          0.03308890	          0.00999999	          0.15080768	          0.01226687	          0.00999999	          0.25278211	
